<!-- Copyright The OpenTelemetry Authors -->
<!-- -->
<!-- Licensed under the Apache License, Version 2.0 (the "License"); -->
<!-- you may not use this file except in compliance with the License. -->
<!-- You may obtain a copy of the License at -->
<!-- -->
<!--     http://www.apache.org/licenses/LICENSE-2.0 -->
<!-- -->
<!-- Unless required by applicable law or agreed to in writing, software -->
<!-- distributed under the License is distributed on an "AS IS" BASIS, -->
<!-- WITHOUT WARRANTIES OR CONDITIONS OF ANY KIND, either express or implied. -->
<!-- See the License for the specific language governing permissions and -->
<!-- limitations under the License. -->

<svg width="16" height="16" viewBox="0 0 16 16" fill="none" xmlns="http://www.w3.org/2000/svg">
<g clip-path="url(#clip0_2_989)">
<path d="M14.2272 9.8027L14.2272 9.80269L16.1022 3.19158L15.9829 3.15775L16.1022 3.19157C16.1532 3.01164 16.1175 2.81811 16.0056 2.66854L16.0056 2.66848C15.8935 2.51888 15.718 2.43051 15.5313 2.43051H4.17441L3.86096 1.00949L3.86096 1.00945C3.80071 0.736735 3.56026 0.541626 3.28126 0.541626H0.468751C0.139936 0.541626 -0.125 0.809855 -0.125 1.13885C-0.125 1.46784 0.139936 1.73607 0.468751 1.73607H2.80485L4.45426 9.21363C3.9622 9.47026 3.62501 9.98772 3.62501 10.5833C3.62501 11.4326 4.31096 12.125 5.15626 12.125H13.6563C13.9851 12.125 14.25 11.8567 14.25 11.5277C14.25 11.1987 13.9851 10.9305 13.6563 10.9305H5.15626C4.96774 10.9305 4.81251 10.7755 4.81251 10.5833C4.81251 10.3914 4.96716 10.2366 5.15534 10.2362H5.15577C5.15753 10.2362 5.15916 10.2362 5.16062 10.2361C5.16089 10.2361 5.16116 10.2361 5.16142 10.2361H13.6563C13.922 10.2361 14.1546 10.0586 14.2272 9.8027ZM5.63267 9.04163L4.43781 3.62496H14.7444L13.2082 9.04163H5.63267Z" fill="white" stroke="white" stroke-width="0.25"/>
<path d="M4.54199 14C4.54199 14.8042 5.1961 15.4583 6.00033 15.4583C6.80455 15.4583 7.45866 14.8042 7.45866 14C7.45866 13.1957 6.80455 12.5416 6.00033 12.5416C5.1961 12.5416 4.54199 13.1957 4.54199 14ZM6.00033 13.6805C6.17631 13.6805 6.31977 13.824 6.31977 14C6.31977 14.1759 6.17631 14.3194 6.00033 14.3194C5.82434 14.3194 5.68088 14.1759 5.68088 14C5.68088 13.824 5.82434 13.6805 6.00033 13.6805Z" fill="white" stroke="white" stroke-width="0.25"/>
<path d="M11.208 14C11.208 14.8042 11.8621 15.4583 12.6663 15.4583C13.4706 15.4583 14.1247 14.8042 14.1247 14C14.1247 13.1957 13.4706 12.5416 12.6663 12.5416C11.8621 12.5416 11.208 13.1957 11.208 14ZM12.6663 13.6805C12.8423 13.6805 12.9858 13.824 12.9858 14C12.9858 14.1759 12.8423 14.3194 12.6663 14.3194C12.4904 14.3194 12.3469 14.1759 12.3469 14C12.3469 13.824 12.4904 13.6805 12.6663 13.6805Z" fill="white" stroke="white" stroke-width="0.25"/>
</g>
<defs>
<clipPath id="clip0_2_989">
<rect width="16" height="16" fill="white"/>
</clipPath>
</defs>
</svg>
